<svg width="19" height="19" viewBox="0 0 19 19" fill="none" xmlns="http://www.w3.org/2000/svg">
<path d="M11.97 0C10.8586 0.00133916 9.76319 0.265282 8.77327 0.770291C7.78334 1.2753 6.92692 2.00706 6.27387 2.90587C5.62082 3.80468 5.18965 4.84507 5.01555 5.94214C4.84145 7.03921 4.92935 8.16187 5.27208 9.21852L0.202445 14.2764C0.0716745 14.4104 -0.00104479 14.5906 1.13452e-05 14.7778V18.2963C1.13452e-05 18.4829 0.0741948 18.6619 0.206242 18.7939C0.33829 18.9259 0.517384 19 0.704127 19H4.22471C4.41145 19 4.59055 18.9259 4.72259 18.7939C4.85464 18.6619 4.92882 18.4829 4.92882 18.2963V16.8889H6.33706C6.5238 16.8889 6.70289 16.8147 6.83494 16.6828C6.96699 16.5508 7.04117 16.3718 7.04117 16.1852V14.7778H8.4494C8.63673 14.7788 8.81695 14.7062 8.95109 14.5755L9.78722 13.731C10.7548 14.0445 11.7789 14.1448 12.7889 14.025C13.799 13.9052 14.7711 13.568 15.6383 13.0368C16.5055 12.5056 17.2473 11.7929 17.8126 10.9478C18.3778 10.1026 18.7532 9.14514 18.9128 8.14117C19.0724 7.1372 19.0124 6.11059 18.7371 5.13199C18.4617 4.15339 17.9775 3.24603 17.3177 2.47235C16.6579 1.69867 15.8382 1.07704 14.915 0.650245C13.9919 0.223446 12.9871 0.0016092 11.97 0ZM13.7303 6.68518C13.4518 6.68518 13.1795 6.60264 12.9479 6.44799C12.7163 6.29335 12.5358 6.07354 12.4292 5.81637C12.3227 5.5592 12.2948 5.27622 12.3491 5.00321C12.4034 4.7302 12.5376 4.47942 12.7345 4.28259C12.9314 4.08576 13.1824 3.95172 13.4555 3.89741C13.7287 3.84311 14.0119 3.87098 14.2692 3.9775C14.5265 4.08403 14.7464 4.26442 14.9012 4.49586C15.0559 4.72731 15.1385 4.99942 15.1385 5.27778C15.1385 5.65105 14.9901 6.00902 14.726 6.27296C14.462 6.5369 14.1038 6.68518 13.7303 6.68518Z" fill="white"/>
</svg>
