<svg width="116" height="67" viewBox="0 0 116 67" fill="none" xmlns="http://www.w3.org/2000/svg">
<path d="M114.994 64.5439C115.287 62.1958 115.438 59.8038 115.438 57.3767C115.438 25.7015 89.76 0.0237198 58.0848 0.0237198C26.4096 0.0237198 0.731812 25.7015 0.731812 57.3767C0.731812 60.4917 0.98015 63.5486 1.45813 66.529C4.09246 62.9227 8.20398 60.3483 12.645 59.5652C17.45 58.718 21.817 59.8834 25.5093 62.0616C25.2912 60.5315 25.1783 58.9673 25.1783 57.3767C25.1783 39.203 39.9111 24.4702 58.0848 24.4702C76.2584 24.4702 90.9912 39.203 90.9912 57.3767C90.9912 58.575 90.927 59.7583 90.8023 60.9234C94.4167 58.6166 98.7411 57.2987 103.574 57.9781C108.038 58.6055 112.235 61.0335 114.994 64.5439Z" fill="#E0C7E4"/>
</svg>
