<svg width="109" height="52" viewBox="0 0 109 52" fill="none" xmlns="http://www.w3.org/2000/svg">
<path d="M9.64082 2.21337C2.99266 3.38566 -1.5643 9.80766 0.987719 16.0576C4.55064 24.7829 10.2348 32.5569 17.6039 38.6317C28.1412 47.3176 41.4318 51.959 55.0857 51.7208C68.7395 51.4826 81.8603 46.3801 92.0882 37.3313C99.2405 31.0034 104.65 23.0355 107.907 14.1913C110.239 7.85613 105.46 1.59702 98.7752 0.657575C92.0905 -0.281867 86.0884 4.58396 82.7864 10.4722C80.9966 13.6637 78.673 16.5592 75.8895 19.022C70.0211 24.214 62.493 27.1412 54.6593 27.2781C46.8253 27.4146 39.1997 24.7519 33.1539 19.768C30.2859 17.4039 27.8629 14.5913 25.9627 11.464C22.4573 5.69469 16.289 1.04108 9.64082 2.21337Z" fill="white"/>
</svg>
